<svg width="827" height="357" viewBox="0 0 827 357" fill="none" xmlns="http://www.w3.org/2000/svg">
<g style="mix-blend-mode:darken">
<path d="M232.034 298.429C232.034 302.914 229.834 305.156 225.434 305.156H213.124C209.824 305.156 207.836 304.521 207.159 303.252C206.482 301.898 206.101 300.714 206.017 299.698C205.932 298.599 205.763 297.287 205.509 295.764C205.001 291.618 204.282 287.134 203.351 282.312C196.752 294.41 186.388 302.406 172.258 306.298C167.266 307.652 161.767 308.328 155.76 308.328C149.752 308.328 143.745 307.313 137.738 305.283C131.731 303.337 126.401 300.418 121.747 296.526C111.256 287.726 106.01 276.177 106.01 261.879C106.01 246.226 111.763 234.254 123.27 225.963C132.746 219.279 144.93 215.937 159.821 215.937C174.712 215.937 187.318 220.294 197.64 229.009C197.894 226.132 198.021 222.536 198.021 218.221C198.021 213.906 197.175 209.591 195.483 205.276C193.791 200.961 191.379 197.365 188.249 194.489C181.819 188.82 172.85 185.985 161.344 185.985C151.022 185.985 140.53 188.82 129.87 194.489C127.839 195.588 126.062 196.138 124.539 196.138C122.255 196.138 120.055 193.896 117.94 189.412C115.655 184.843 114.513 181.544 114.513 179.513C114.513 175.79 117.305 172.194 122.889 168.725C133.55 162.126 147.806 158.826 165.659 158.826C181.903 158.826 195.356 163.268 206.017 172.152C218.623 182.813 224.927 197.873 224.927 217.333C224.927 225.963 223.53 236.835 220.738 249.949C227.93 270.424 231.695 286.584 232.034 298.429ZM147.003 244.619C143.534 247.157 141.038 249.695 139.515 252.233C138.077 254.772 137.357 257.775 137.357 261.244C137.357 264.628 137.95 267.674 139.134 270.382C140.403 273.005 142.138 275.204 144.337 276.981C148.991 280.619 154.194 282.438 159.948 282.438C165.786 282.438 170.566 281.762 174.289 280.408C178.011 279.054 181.227 277.32 183.934 275.204C189.772 270.636 192.691 265.813 192.691 260.736C192.183 254.391 188.672 249.399 182.157 245.761C176.319 242.377 169.424 240.684 161.471 240.684C155.294 240.684 150.472 241.996 147.003 244.619ZM270.737 171.137C270.737 165.045 273.402 161.999 278.732 161.999H285.585C290.239 161.999 293.538 164.03 295.484 168.091C298.276 174.013 300.307 182.178 301.576 192.585C301.576 192.754 301.618 192.839 301.703 192.839C301.872 192.839 302.168 191.4 302.591 188.524C303.015 185.647 304.241 182.136 306.272 177.99C308.303 173.76 310.798 170.206 313.76 167.329C319.767 161.661 327.128 158.826 335.842 158.826C345.572 158.826 352.341 160.434 356.148 163.649C357.925 165.087 358.644 167.076 358.306 169.614L356.275 185.605C355.768 189.92 353.568 192.077 349.676 192.077C347.814 192.077 345.53 191.696 342.823 190.935C337.577 189.581 333.431 188.904 330.385 188.904C327.339 188.904 324.124 190.258 320.74 192.966C317.356 195.588 314.437 198.888 311.983 202.865C306.991 211.156 304.495 219.998 304.495 229.389V296.779C304.495 299.148 303.818 301.137 302.465 302.744C301.111 304.352 299.165 305.156 296.627 305.156H281.905C279.197 305.156 277.124 304.352 275.686 302.744C274.332 301.137 273.656 299.148 273.656 296.779V209.337C273.656 194.446 273.148 184.632 272.133 179.894C271.202 175.071 270.737 172.152 270.737 171.137ZM465.034 181.29C465.034 186.028 462.368 188.397 457.038 188.397H421.249V268.097C421.249 276.727 425.522 281.042 434.067 281.042C439.482 281.042 446.547 278.335 455.261 272.92C456.953 271.82 458.773 271.27 460.719 271.27C462.749 271.27 464.357 272.666 465.541 275.458L468.46 282.058C469.56 284.596 470.11 286.753 470.11 288.53C470.11 290.307 468.756 292.38 466.049 294.749C463.426 297.033 460.042 299.106 455.896 300.968C446.504 305.198 438.001 307.313 430.387 307.313C422.772 307.313 416.722 306.552 412.238 305.029C407.839 303.421 404.074 301.052 400.943 297.922C394.174 291.322 390.79 281.804 390.79 269.367V188.397H380.13C374.799 188.397 372.134 185.985 372.134 181.163V173.929C372.134 171.983 372.642 170.46 373.657 169.36C374.672 168.26 376.661 167.414 379.622 166.822L392.313 163.141L397.136 133.317C398.066 127.733 400.351 124.941 403.989 124.941H414.523C416.469 124.941 418.076 125.745 419.345 127.352C420.614 128.875 421.249 130.863 421.249 133.317V161.999H457.038C462.368 161.999 465.034 164.326 465.034 168.979V181.29ZM516.301 137.505C510.548 137.505 505.64 135.517 501.579 131.54C497.518 127.648 495.487 122.741 495.487 116.818C495.487 111.065 497.518 106.158 501.579 102.097C505.471 98.2047 510.378 96.2588 516.301 96.2588C525.354 96.2588 531.699 100.405 535.338 108.696C536.438 111.15 536.987 113.857 536.987 116.818C536.987 122.741 534.957 127.648 530.896 131.54C526.835 135.517 521.97 137.505 516.301 137.505ZM531.15 270.255C531.15 276.262 533.138 279.266 537.114 279.266C538.468 279.266 539.991 278.885 541.683 278.123C544.983 276.685 547.225 275.966 548.41 275.966C550.186 275.966 551.625 277.193 552.725 279.646L556.659 288.53C557.336 289.969 557.674 291.322 557.674 292.591C557.674 296.23 554.544 299.614 548.283 302.744C542.36 305.79 536.48 307.313 530.642 307.313C524.889 307.313 520.277 306.679 516.808 305.409C513.34 304.14 510.378 302.025 507.925 299.064C503.017 292.972 500.564 283.073 500.564 269.367V170.375C500.564 168.006 501.241 166.018 502.594 164.41C503.948 162.803 505.556 161.999 507.417 161.999H524.423C526.369 161.999 527.977 162.803 529.246 164.41C530.515 166.018 531.15 168.006 531.15 170.375V270.255Z" fill="#CD72B4"/>
</g>
<g style="mix-blend-mode:multiply">
<path d="M596.558 308C594.8 308 593.921 306.872 593.921 304.616V232.941C593.921 232.15 594.141 231.477 594.58 230.92C595.02 230.363 595.576 230.085 596.25 230.085H602.227C602.9 230.085 603.457 230.363 603.896 230.92C604.365 231.477 604.6 232.15 604.6 232.941V265.065C608.35 259.909 613.711 257.331 620.684 257.331C627.07 257.331 631.963 259.689 635.361 264.406C638.438 268.684 639.976 274.382 639.976 281.501C639.976 289.821 637.969 296.516 633.955 301.584C630 306.564 624.99 309.055 618.926 309.055C615.645 309.055 612.598 308.322 609.785 306.857C607.002 305.363 604.746 303.093 603.018 300.046C602.959 300.954 602.871 301.848 602.754 302.727C602.666 303.605 602.607 304.455 602.578 305.275C602.461 307.092 601.274 308 599.019 308H596.558ZM607.676 271.394C606.475 272.888 605.552 274.646 604.907 276.667C604.263 278.659 603.94 280.754 603.94 282.951C603.94 285.119 604.263 287.229 604.907 289.279C605.552 291.301 606.445 293.117 607.588 294.729C610.107 298.244 613.228 300.002 616.948 300.002C621.108 300.002 624.229 298.186 626.309 294.553C628.008 291.535 628.857 287.639 628.857 282.863C628.857 274.982 626.836 269.914 622.793 267.658C621.387 266.867 619.673 266.472 617.651 266.472C615.63 266.472 613.77 266.911 612.07 267.79C610.371 268.669 608.906 269.87 607.676 271.394ZM662.298 285.632L662.254 286.467C662.254 290.48 663.529 293.703 666.077 296.135C668.743 298.713 672.362 300.002 676.932 300.002C681.092 300.002 684.959 298.757 688.533 296.267C689.207 295.798 689.808 295.563 690.335 295.563C691.419 295.563 692.239 296.105 692.796 297.189L693.983 299.65C694.246 300.236 694.378 300.866 694.378 301.54C694.378 302.214 694.071 302.917 693.455 303.649C692.869 304.353 692.093 304.997 691.126 305.583C690.159 306.169 689.031 306.682 687.742 307.121C686.483 307.561 685.179 307.927 683.831 308.22C681.136 308.806 678.323 309.099 675.394 309.099C672.464 309.099 669.505 308.542 666.517 307.429C663.558 306.315 660.994 304.689 658.826 302.551C654.168 298.01 651.839 291.872 651.839 284.138C651.839 270.573 656.614 262.136 666.165 258.825C669.154 257.8 672.215 257.287 675.35 257.287C678.514 257.287 681.195 257.624 683.392 258.298C685.618 258.972 687.537 259.968 689.149 261.286C692.547 264.069 694.246 267.951 694.246 272.932C694.246 277.824 692.254 281.56 688.27 284.138C684.783 286.394 680.184 287.521 674.471 287.521C670.955 287.521 666.898 286.892 662.298 285.632ZM683.919 272.8C683.919 268.61 681.107 266.516 675.482 266.516C670.12 266.516 666.37 268.479 664.232 272.404C663.47 273.781 662.972 275.48 662.737 277.502C665.257 278.762 668.465 279.392 672.362 279.392C680.067 279.392 683.919 277.194 683.919 272.8ZM736.124 265.109C736.124 266.75 735.202 267.57 733.356 267.57H720.963V295.168C720.963 298.156 722.443 299.65 725.402 299.65C727.277 299.65 729.723 298.713 732.741 296.838C733.327 296.457 733.956 296.267 734.63 296.267C735.333 296.267 735.89 296.75 736.3 297.717L737.311 300.002C737.692 300.881 737.882 301.628 737.882 302.243C737.882 302.858 737.413 303.576 736.476 304.396C735.568 305.188 734.396 305.905 732.96 306.55C729.708 308.015 726.764 308.747 724.127 308.747C721.491 308.747 719.396 308.483 717.843 307.956C716.32 307.399 715.016 306.579 713.932 305.495C711.588 303.21 710.416 299.914 710.416 295.607V267.57H706.725C704.879 267.57 703.956 266.735 703.956 265.065V262.561C703.956 261.887 704.132 261.359 704.484 260.979C704.835 260.598 705.524 260.305 706.549 260.1L710.944 258.825L712.614 248.498C712.936 246.564 713.727 245.598 714.987 245.598H718.634C719.308 245.598 719.865 245.876 720.304 246.433C720.744 246.96 720.963 247.648 720.963 248.498V258.43H733.356C735.202 258.43 736.124 259.235 736.124 260.847V265.109ZM788.374 305.671C788.374 307.224 787.612 308 786.088 308H781.826C780.683 308 779.995 307.78 779.76 307.341C779.526 306.872 779.394 306.462 779.365 306.11C779.336 305.729 779.277 305.275 779.189 304.748C779.013 303.312 778.764 301.76 778.442 300.09C776.157 304.279 772.568 307.048 767.675 308.396C765.947 308.864 764.043 309.099 761.962 309.099C759.882 309.099 757.802 308.747 755.722 308.044C753.642 307.37 751.796 306.359 750.185 305.012C746.552 301.965 744.736 297.966 744.736 293.015C744.736 287.595 746.728 283.449 750.712 280.578C753.994 278.264 758.212 277.106 763.369 277.106C768.525 277.106 772.89 278.615 776.464 281.633C776.552 280.637 776.596 279.392 776.596 277.897C776.596 276.403 776.303 274.909 775.717 273.415C775.131 271.921 774.296 270.676 773.212 269.68C770.986 267.717 767.88 266.735 763.896 266.735C760.322 266.735 756.689 267.717 752.998 269.68C752.295 270.061 751.679 270.251 751.152 270.251C750.361 270.251 749.599 269.475 748.867 267.922C748.076 266.34 747.68 265.197 747.68 264.494C747.68 263.205 748.647 261.96 750.581 260.759C754.272 258.474 759.209 257.331 765.39 257.331C771.015 257.331 775.673 258.869 779.365 261.945C783.73 265.637 785.913 270.852 785.913 277.59C785.913 280.578 785.429 284.343 784.462 288.884C786.953 295.974 788.256 301.569 788.374 305.671ZM758.93 287.038C757.729 287.917 756.865 288.796 756.337 289.675C755.839 290.554 755.59 291.594 755.59 292.795C755.59 293.967 755.796 295.021 756.206 295.959C756.645 296.867 757.246 297.629 758.007 298.244C759.619 299.504 761.421 300.134 763.413 300.134C765.434 300.134 767.089 299.899 768.379 299.431C769.668 298.962 770.781 298.361 771.718 297.629C773.74 296.047 774.751 294.377 774.751 292.619C774.575 290.422 773.359 288.693 771.103 287.434C769.082 286.262 766.694 285.676 763.94 285.676C761.801 285.676 760.131 286.13 758.93 287.038Z" fill="#BAC9CD"/>
</g>
<path d="M185.846 76.9421C185.846 112.42 155.867 141.283 119.019 141.283C87.9435 141.283 62.661 116.942 62.661 87.0213C62.661 61.5476 84.1847 40.8237 110.641 40.8237C118.637 40.8237 125.12 47.0655 125.12 54.7643C125.12 62.4631 118.637 68.7049 110.641 68.7049C100.153 68.7049 91.6192 76.9217 91.6192 87.0213C91.6192 101.567 103.91 113.402 119.019 113.402C139.899 113.402 156.886 97.0451 156.886 76.9421C156.886 49.8899 134.026 27.8811 105.93 27.8811C68.814 27.8811 38.6168 56.9552 38.6168 92.6929V213.512C44.4781 217.752 48.27 224.499 48.27 232.1L41.5724 284.764C41.573 297.598 37.4666 307.999 24.1384 307.999C10.8101 307.999 5.54736 297.598 5.54736 284.764L0.00612985 232.1C0.00612985 224.499 3.79805 217.751 9.6593 213.512V92.6922C9.6593 41.5811 52.846 -0.000683546 105.931 -0.000683546C149.996 -0.000683546 185.846 34.5145 185.846 76.9421Z" fill="#CD72B4"/>
</svg>
